HIERARCHY
ROOT RootJoint
{
    OFFSET   0.000000   0.000000   0.000000
    CHANNELS 6 Xposition Yposition Zposition Xrotation Yrotation Zrotation
    JOINT pelvis_lowerback
    {
        OFFSET   0.000000   0.093605   0.000000
        CHANNELS 3 Xrotation Yrotation Zrotation
        JOINT lowerback_torso
        {
            OFFSET   0.000000   0.100000   0.000000
            CHANNELS 3 Xrotation Yrotation Zrotation
            JOINT torso_head
            {
                OFFSET   0.000000   0.282350   0.000000
                CHANNELS 3 Xrotation Yrotation Zrotation
                End Site
                {
                    OFFSET   0.000000   0.192650   0.000000
                }
            }
            JOINT rTorso_Clavicle
            {
                OFFSET  -0.001000   0.157500   0.000000
                CHANNELS 3 Xrotation Yrotation Zrotation
                JOINT rShoulder
                {
                    OFFSET  -0.117647   0.000000   0.000000
                    CHANNELS 3 Xrotation Yrotation Zrotation
                    JOINT rElbow
                    {
                        OFFSET  -0.245000   0.000000   0.000000
                        CHANNELS 3 Xrotation Yrotation Zrotation
                        JOINT rWrist
                        {
                            OFFSET  -0.240000   0.000000   0.000000
                            CHANNELS 3 Xrotation Yrotation Zrotation
                            End Site
                            {
                                OFFSET  -0.116353  -0.002500   0.000000
                            }
                        }
                    }
                }
            }
            JOINT lTorso_Clavicle
            {
                OFFSET   0.001000   0.157500   0.000000
                CHANNELS 3 Xrotation Yrotation Zrotation
                JOINT lShoulder
                {
                    OFFSET   0.117647   0.000000   0.000000
                    CHANNELS 3 Xrotation Yrotation Zrotation
                    JOINT lElbow
                    {
                        OFFSET   0.245000   0.000000   0.000000
                        CHANNELS 3 Xrotation Yrotation Zrotation
                        JOINT lWrist
                        {
                            OFFSET   0.240000   0.000000   0.000000
                            CHANNELS 3 Xrotation Yrotation Zrotation
                            End Site
                            {
                                OFFSET   0.116353  -0.002500   0.000000
                            }
                        }
                    }
                }
            }
        }
    }
    JOINT rHip
    {
        OFFSET  -0.100000  -0.051395   0.000000
        CHANNELS 3 Xrotation Yrotation Zrotation
        JOINT rKnee
        {
            OFFSET   0.000000  -0.410000   0.000000
            CHANNELS 3 Xrotation Yrotation Zrotation
            JOINT rAnkle
            {
                OFFSET   0.000000  -0.390000   0.000000
                CHANNELS 3 Xrotation Yrotation Zrotation
                JOINT rToeJoint
                {
                    OFFSET   0.000000  -0.050000   0.130000
                    CHANNELS 3 Xrotation Yrotation Zrotation
                    End Site
                    {
                        OFFSET  -0.010000   0.002000   0.060000
                    }
                }
            }
        }
    }
    JOINT lHip
    {
        OFFSET   0.100000  -0.051395   0.000000
        CHANNELS 3 Xrotation Yrotation Zrotation
        JOINT lKnee
        {
            OFFSET   0.000000  -0.410000   0.000000
            CHANNELS 3 Xrotation Yrotation Zrotation
            JOINT lAnkle
            {
                OFFSET   0.000000  -0.390000   0.000000
                CHANNELS 3 Xrotation Yrotation Zrotation
                JOINT lToeJoint
                {
                    OFFSET   0.000000  -0.050000   0.130000
                    CHANNELS 3 Xrotation Yrotation Zrotation
                    End Site
                    {
                        OFFSET   0.010000   0.002000   0.060000
                    }
                }
            }
        }
    }
}
MOTION
Frames: 12
Frame Time:   0.008333
 -2.376719   0.925631   3.975860   0.000000   0.000000   0.000000   0.000000   0.000000   0.000000   0.000000   0.000000   0.000000   0.000000   0.000000   0.000000   0.000000   0.000000   0.000000   0.000000   0.000000   0.000000   0.000000   0.000000   0.000000   0.000000   0.000000   0.000000   0.000000   0.000000   0.000000   0.000000   0.000000   0.000000   0.000000   0.000000   0.000000   0.000000   0.000000   0.000000   0.000000   0.000000   0.000000   0.000000   0.000000   0.000000   0.000000   0.000000   0.000000   0.000000   0.000000   0.000000   0.000000   0.000000   0.000000   0.000000   0.000000   0.000000   0.000000   0.000000   0.000000   0.000000   0.000000   0.000000
 -2.376135   0.925973   3.972515   0.186693  -0.166908   0.127386   0.403099   0.064958   0.094867  -0.109412  -0.032902  -0.172808  -0.370240   0.123262  -0.010772  -0.073629  -0.362099   0.345289  -0.760453   0.890639   1.471631   0.054225   3.356516   0.008758   0.098581  -2.531064  -2.258654  -0.113281   0.406376  -0.522983  -0.579391  -0.100439  -1.639352   0.063912  -3.477606  -0.004639   0.062069   1.918458   2.496301  -1.505989  -0.075992  -0.375188   3.286750   0.006945  -0.007346  -2.113067  -0.204981   0.481174  -0.006425   0.000013   0.000025  -1.828510   0.325375  -0.030326   3.401530  -0.002517   0.004701  -1.468806   0.033700  -0.338339   0.299240   0.000646   0.000492
 -2.375409   0.926390   3.968325   0.134036  -0.456626   0.280964   0.991987   0.199479   0.207587  -0.014892   0.017796  -0.364991  -0.686984   0.236803  -0.011382  -0.150132  -0.326032   1.267434  -1.526357   2.060417   3.321473   0.130916   6.919888   0.010584   0.162514  -3.869436  -3.920359  -0.220231   0.522957  -1.725615  -1.150838  -0.439756  -3.722100   0.152985  -7.125491  -0.002166   0.110476   2.753539   4.277124  -2.845830  -0.144223  -0.931831   6.887778   0.016927  -0.019294  -4.072429  -0.418906   0.923227  -0.043600   0.000020   0.000215  -3.669012   0.643572   0.057408   6.893059  -0.008096   0.005150  -2.818411   0.077444  -0.651347   0.605618   0.000795   0.000585
 -2.374662   0.926503   3.963701  -0.010109  -0.803977   0.439128   1.641783   0.382471   0.314982   0.169959   0.126764  -0.559730  -0.979047   0.341910  -0.003763  -0.227617  -0.004533   2.548162  -2.298549   3.349879   5.378701   0.213038  10.572164   0.008891   0.233831  -4.536474  -4.886449  -0.323826   0.411415  -3.331877  -1.710818  -0.910129  -6.031723   0.247404 -10.843507   0.003450   0.172061   3.044091   5.259411  -4.026022  -0.197519  -1.606430  10.443147   0.026667  -0.032315  -5.894745  -0.636304   1.327843  -0.066388  -0.000006   0.000308  -5.520825   0.932080   0.274800  10.148851  -0.015489   0.004118  -4.075925   0.127324  -0.940975   0.891859   0.000553   0.000483
 -2.373949   0.926068   3.958882  -0.185804  -1.171212   0.594534   2.314798   0.597789   0.408950   0.395594   0.274053  -0.754769  -1.258001   0.439822   0.007754  -0.310293   0.500623   4.034915  -3.077109   4.675796   7.537325   0.291098  14.278851   0.004998   0.316657  -4.811025  -5.320160  -0.430825   0.150575  -5.160357  -2.258574  -1.445001  -8.438859   0.336419 -14.603813   0.010386   0.244907   3.036444   5.646390  -5.048293  -0.233583  -2.363759  13.801032   0.034607  -0.044136  -7.592532  -0.853741   1.697674  -0.087467  -0.000047   0.000380  -7.395125   1.186506   0.610406  13.140188  -0.023343   0.003422  -5.251770   0.181936  -1.209085   1.144461   0.000105   0.000352
 -2.373291   0.924911   3.954030  -0.369942  -1.544314   0.744779   2.997429   0.837923   0.486217   0.644847   0.449705  -0.949931  -1.525606   0.531229   0.020624  -0.401522   1.118800   5.623321  -3.859304   5.987230   9.724948   0.360091  18.019834  -0.000578   0.406499  -4.851331  -5.381637  -0.544728  -0.199537  -7.092845  -2.792381  -1.999402 -10.860115   0.414373 -18.389306   0.017651   0.321703   2.866075   5.623870  -5.931299  -0.251784  -3.179895  16.955316   0.040471  -0.054141  -9.176286  -1.068520   2.035579  -0.113054  -0.000108   0.000473  -9.282724   1.404073   1.046389  15.882321  -0.030668   0.003468  -6.351604   0.240005  -1.457249   1.366172  -0.000406   0.000242
 -2.372698   0.922913   3.949269  -0.551654  -1.912758   0.889264   3.680822   1.096262   0.545780   0.910608   0.646544  -1.145284  -1.780600   0.616565   0.033656  -0.503130   1.800336   7.242717  -4.640958   7.253086  11.892835   0.417943  21.782741  -0.007456   0.497990  -4.753823  -5.195143  -0.665751  -0.596098  -9.052095  -3.309702  -2.544368 -13.242163   0.478806 -22.189242   0.024494   0.395923   2.614535   5.329517  -6.689191  -0.253652  -4.036812  19.917557   0.044376  -0.062100 -10.653875  -1.278783   2.344202  -0.142064  -0.000183   0.000573 -11.169478   1.582496   1.563156  18.396905  -0.036855   0.004248  -7.380116   0.300217  -1.686996   1.561523  -0.000891   0.000170
 -2.372056   0.919655   3.944075  -0.470687  -2.343854   1.010712   4.104199   1.281718   0.610173   1.308732   1.013428  -1.274856  -2.078698   0.704373  -0.028132  -0.529979   2.380533   8.445819  -5.439387   8.734285  13.887216   0.452641  25.544429  -0.022853   0.607861  -4.684296  -4.447888  -0.805254  -0.983139 -10.527710  -4.291666  -3.225974 -15.755952   0.510753 -25.935031   0.018771   0.393779   2.533811   4.485960  -7.830635  -0.351411  -4.814409  22.683537   0.043151  -0.071857 -12.194006  -1.623236   2.563720   0.087627   0.000629  -0.001713 -13.244490   1.892101   2.082890  20.623464  -0.038653   0.006591  -8.318545   0.189275  -2.022123   1.917415  -0.001195  -0.000190
 -2.371399   0.915302   3.938825  -0.375621  -2.770830   1.122947   4.575625   1.455876   0.675391   1.717950   1.371470  -1.394993  -2.348690   0.788680  -0.083737  -0.598438   3.009020   9.435471  -6.251185  10.166547  15.688353   0.472471  29.335147  -0.038650   0.734431  -4.496208  -3.778278  -0.970090  -1.420602 -11.799389  -5.251009  -3.884602 -18.050684   0.524235 -29.704442   0.017481   0.385208   2.398676   3.698273  -8.991420  -0.436078  -5.527305  25.211995   0.039307  -0.077645 -13.635107  -1.952544   2.758147   0.283511   0.001078  -0.003196 -15.226311   2.170138   2.563833  22.652339  -0.038056   0.007894  -9.196982   0.088717  -2.337405   2.243457  -0.001271  -0.000478
 -2.370751   0.909944   3.933726  -0.276260  -3.171063   1.229045   5.066819   1.616564   0.735923   2.126614   1.704025  -1.508227  -2.589660   0.867541  -0.133213  -0.700549   3.648687  10.275940  -7.067900  11.525719  17.339850   0.482432  33.144258  -0.053024   0.870845  -4.218745  -3.246194  -1.154437  -1.879251 -12.911077  -6.182300  -4.505272 -20.152608   0.524949 -33.490949   0.018205   0.388880   2.187187   3.038965 -10.131127  -0.501984  -6.177919  27.538324   0.034274  -0.079696 -14.981705  -2.263624   2.930650   0.458081   0.001304  -0.004100 -17.096692   2.416545   3.000431  24.526138  -0.035971   0.008624 -10.018474  -0.001614  -2.633331   2.539033  -0.001198  -0.000663
 -2.370121   0.903648   3.928900  -0.172611  -3.536820   1.328914   5.554767   1.762362   0.791938   2.522364   2.008969  -1.613050  -2.805881   0.941198  -0.178375  -0.824165   4.273743  11.008339  -7.879487  12.798792  18.871937   0.485710  36.964406  -0.065206   1.009760  -3.892183  -2.818517  -1.351347  -2.337033 -13.894378  -7.081176  -5.079186 -22.087909   0.516676 -37.288955   0.019349   0.400332   1.921671   2.488702 -11.232917  -0.552143  -6.768055  29.687907   0.028904  -0.078834 -16.239518  -2.556702   3.083750   0.615335   0.001384  -0.004581 -18.849835   2.636996   3.391706  26.266306  -0.032977   0.008995 -10.786226  -0.082852  -2.910975   2.807551  -0.001030  -0.000754
 -2.369509   0.896464   3.924412  -0.064506  -3.866711   1.421980   6.025362   1.893598   0.845326   2.897896   2.287297  -1.707641  -3.001856   1.010025  -0.220129  -0.958656   4.869334  11.660155  -8.677295  13.980246  20.304766   0.484377  40.790510  -0.075071   1.146243  -3.546937  -2.461103  -1.553830  -2.779877 -14.772767  -7.943615  -5.602096 -23.876675   0.502014 -41.094134   0.020116   0.415322   1.626081   2.022621 -12.288254  -0.589881  -7.300398  31.679872   0.023703  -0.075880 -17.414145  -2.832358   3.219715   0.757797   0.001369  -0.004760 -20.484513   2.836425   3.738037  27.887905  -0.029483   0.009092 -11.503488  -0.156001  -3.171356   3.051872  -0.000811  -0.000774
